<svg width="16" height="17" viewBox="0 0 16 17" fill="none" xmlns="http://www.w3.org/2000/svg">
    <g id="Camera 1">
        <path id="Vector"
              d="M5.47428 2.24498L5.1421 1.87128V1.87128L5.47428 2.24498ZM10.5257 2.24498L10.8579 1.87128V1.87128L10.5257 2.24498ZM10.3639 2.10115L10.0317 2.47485L10.3639 2.10115ZM5.6361 2.10115L5.96828 2.47485V2.47485L5.6361 2.10115ZM2.04581 15.7837L2.3397 15.3792L2.04581 15.7837ZM1.21619 14.9541L1.62069 14.6602L1.21619 14.9541ZM14.7838 14.9541L14.3793 14.6602L14.7838 14.9541ZM13.9542 15.7837L13.6603 15.3792L13.9542 15.7837ZM15 5.9886V9.7499H16V5.9886H15ZM8.75 15.9999H7.25V16.9999H8.75V15.9999ZM1 9.7499V5.9886H0V9.7499H1ZM10.0317 2.47485L10.1935 2.61869L10.8579 1.87128L10.6961 1.72744L10.0317 2.47485ZM5.80646 2.61869L5.96828 2.47485L5.30392 1.72744L5.1421 1.87128L5.80646 2.61869ZM3.4887 3.4999C4.34313 3.4999 5.16785 3.18634 5.80646 2.61869L5.1421 1.87128C4.68654 2.27622 4.09822 2.4999 3.4887 2.4999V3.4999ZM10.1935 2.61869C10.8321 3.18634 11.6569 3.4999 12.5113 3.4999V2.4999C11.9018 2.4999 11.3135 2.27622 10.8579 1.87128L10.1935 2.61869ZM10.6961 1.72744C9.15851 0.36071 6.84149 0.360709 5.30392 1.72744L5.96828 2.47485C7.12697 1.44491 8.87303 1.44491 10.0317 2.47485L10.6961 1.72744ZM7.25 15.9999C5.83271 15.9999 4.80991 15.9992 4.0168 15.9133C3.23305 15.8284 2.73313 15.6651 2.3397 15.3792L1.75191 16.1882C2.34423 16.6186 3.04025 16.8133 3.90909 16.9075C4.76857 17.0006 5.85499 16.9999 7.25 16.9999V15.9999ZM0 9.7499C0 11.1449 -0.000686288 12.2313 0.0924323 13.0908C0.186565 13.9596 0.381337 14.6557 0.811678 15.248L1.62069 14.6602C1.33485 14.2668 1.17153 13.7669 1.08661 12.9831C1.00069 12.19 1 11.1672 1 9.7499H0ZM2.3397 15.3792C2.06379 15.1787 1.82115 14.9361 1.62069 14.6602L0.811678 15.248C1.07382 15.6088 1.39111 15.9261 1.75191 16.1882L2.3397 15.3792ZM15 9.7499C15 11.1672 14.9993 12.19 14.9134 12.9831C14.8285 13.7669 14.6652 14.2668 14.3793 14.6602L15.1883 15.248C15.6187 14.6557 15.8134 13.9596 15.9076 13.0908C16.0007 12.2313 16 11.1449 16 9.7499H15ZM8.75 16.9999C10.145 16.9999 11.2314 17.0006 12.0909 16.9075C12.9597 16.8133 13.6558 16.6186 14.2481 16.1882L13.6603 15.3792C13.2669 15.6651 12.7669 15.8284 11.9832 15.9133C11.1901 15.9992 10.1673 15.9999 8.75 15.9999V16.9999ZM14.3793 14.6602C14.1788 14.9361 13.9362 15.1787 13.6603 15.3792L14.2481 16.1882C14.6089 15.9261 14.9262 15.6088 15.1883 15.248L14.3793 14.6602ZM16 5.9886C16 4.06184 14.4381 2.4999 12.5113 2.4999V3.4999C13.8858 3.4999 15 4.61413 15 5.9886H16ZM1 5.9886C1 4.61413 2.11423 3.4999 3.4887 3.4999V2.4999C1.56194 2.4999 0 4.06184 0 5.9886H1ZM4.5 9.7499C4.5 11.6829 6.067 13.2499 8 13.2499V12.2499C6.61929 12.2499 5.5 11.1306 5.5 9.7499H4.5ZM8 13.2499C9.933 13.2499 11.5 11.6829 11.5 9.7499H10.5C10.5 11.1306 9.38071 12.2499 8 12.2499V13.2499ZM11.5 9.7499C11.5 7.8169 9.933 6.2499 8 6.2499V7.2499C9.38071 7.2499 10.5 8.36919 10.5 9.7499H11.5ZM8 6.2499C6.067 6.2499 4.5 7.8169 4.5 9.7499H5.5C5.5 8.36919 6.61929 7.2499 8 7.2499V6.2499Z"
              fill="#2D264B"/>
        <path id="Vector_2"
              d="M11.75 6C11.75 6.41421 12.0858 6.75 12.5 6.75C12.9142 6.75 13.25 6.41421 13.25 6C13.25 5.58579 12.9142 5.25 12.5 5.25C12.0858 5.25 11.75 5.58579 11.75 6Z"
              fill="#2D264B"/>
    </g>
</svg>
