<svg width="20" height="20" viewBox="0 0 20 20" fill="none" xmlns="http://www.w3.org/2000/svg">
<g id="vuesax/linear/clipboard-text">
<g id="clipboard-text">
<path id="Vector" d="M6.6665 10.1666H12.4998" stroke="#0A0D14" stroke-width="1.5" stroke-miterlimit="10" stroke-linecap="round" stroke-linejoin="round"/>
<path id="Vector_2" d="M6.6665 13.5H10.3165" stroke="#0A0D14" stroke-width="1.5" stroke-miterlimit="10" stroke-linecap="round" stroke-linejoin="round"/>
<path id="Vector_3" d="M8.33317 4.99996H11.6665C13.3332 4.99996 13.3332 4.16663 13.3332 3.33329C13.3332 1.66663 12.4998 1.66663 11.6665 1.66663H8.33317C7.49984 1.66663 6.6665 1.66663 6.6665 3.33329C6.6665 4.99996 7.49984 4.99996 8.33317 4.99996Z" stroke="#0A0D14" stroke-width="1.5" stroke-miterlimit="10" stroke-linecap="round" stroke-linejoin="round"/>
<path id="Vector_4" d="M13.3333 3.34998C16.1083 3.49998 17.5 4.52498 17.5 8.33331V13.3333C17.5 16.6666 16.6667 18.3333 12.5 18.3333H7.5C3.33333 18.3333 2.5 16.6666 2.5 13.3333V8.33331C2.5 4.53331 3.89167 3.49998 6.66667 3.34998" stroke="#0A0D14" stroke-width="1.5" stroke-miterlimit="10" stroke-linecap="round" stroke-linejoin="round"/>
</g>
</g>
</svg>
