<svg width="14" height="14" viewBox="0 0 14 14" fill="none" xmlns="http://www.w3.org/2000/svg">
    <g id="icon">
        <path id="Vector"
              d="M7.99107 6.99988C7.88308 6.99988 7.76036 6.99988 7.5 6.99988C7.23964 6.99988 7.2189 6.99985 7.00647 6.99988V6.99756H2.47143C2.21107 6.99756 2 7.23953 2 7.4999C2 7.76026 2.21107 7.98851 2.47143 7.98851H7.00647H7C7.06384 7.98851 7.23316 7.98851 7.49353 7.98851C7.75389 7.98851 7.89196 7.98851 7.9846 7.98851H7.99107H12.5286C12.7889 7.98851 13 7.76026 13 7.4999C13 7.23953 12.7889 6.99756 12.5286 6.99756H7.99107V6.99988Z"
              fill="#D22B2B" stroke="#D22B2B" stroke-width="0.5" stroke-linecap="round"/>
    </g>
</svg>
