<svg width="10" height="6" viewBox="0 0 10 6" fill="none" xmlns="http://www.w3.org/2000/svg">
<g id="Left 2">
<path id="Vector" d="M1.27728 0.893327C1.0343 0.648162 0.638572 0.646397 0.393408 0.889383C0.148244 1.13237 0.146479 1.52809 0.389465 1.77326L1.87179 3.26887C2.43007 3.83218 2.88636 4.29257 3.29292 4.61908C3.71569 4.9586 4.14481 5.20438 4.65991 5.27003C4.88576 5.29882 5.11432 5.29882 5.34018 5.27003C5.85527 5.20438 6.28439 4.9586 6.70716 4.61908C7.11372 4.29258 7.57 3.83219 8.12828 3.26888L9.61062 1.77326C9.8536 1.52809 9.85184 1.13237 9.60667 0.889383C9.36151 0.646397 8.96578 0.648162 8.7228 0.893327L7.26671 2.36247C6.67576 2.95871 6.26906 3.36771 5.92445 3.64446C5.58971 3.9133 5.37469 4.00552 5.18213 4.03007C5.06121 4.04548 4.93887 4.04548 4.81795 4.03007C4.62539 4.00552 4.41037 3.9133 4.07563 3.64446C3.73102 3.36771 3.32432 2.95871 2.73337 2.36247L1.27728 0.893327Z" fill="#464359"/>
</g>
</svg>
