<svg width="14" height="13" viewBox="0 0 14 13" fill="none" xmlns="http://www.w3.org/2000/svg">
    <g id="Edit Square">
        <g id="Vector">
            <path fill-rule="evenodd" clip-rule="evenodd"
                  d="M9.75811 0.729126C9.38237 0.729126 9.07199 0.886334 8.77822 1.11047C8.4999 1.32282 8.19088 1.63187 7.82029 2.00248L4.62308 5.19964C4.37757 5.44475 4.18344 5.63856 4.06438 5.88627C3.94533 6.13399 3.91526 6.40665 3.87723 6.75148L3.86691 6.84467C3.79578 7.48469 3.73714 8.01225 3.75056 8.4278C3.7646 8.86241 3.85852 9.26051 4.16967 9.57165C4.48081 9.8828 4.87891 9.97672 5.31352 9.99076C5.72907 10.0042 6.25661 9.94554 6.89662 9.87441L6.98986 9.86409C7.33467 9.82606 7.60734 9.79599 7.85505 9.67694C8.10276 9.55788 8.29656 9.36376 8.54167 9.11825L11.7388 5.92104C12.1094 5.55045 12.4185 5.24142 12.6308 4.9631C12.855 4.66933 13.0122 4.35895 13.0122 3.98321C13.0122 3.60746 12.855 3.29709 12.6308 3.00332C12.4185 2.725 12.1095 2.41597 11.7388 2.04538L11.696 2.0025C11.3254 1.63188 11.0163 1.32282 10.738 1.11047C10.4442 0.886334 10.1339 0.729126 9.75811 0.729126ZM11.4073 5.01366L8.72766 2.33404C8.96429 2.1009 9.14731 1.92947 9.30898 1.80611C9.52492 1.64136 9.65061 1.60413 9.75811 1.60413C9.86562 1.60413 9.99131 1.64136 10.2072 1.80611C10.4333 1.97857 10.701 2.24502 11.0987 2.64265C11.4963 3.04029 11.7628 3.30805 11.9352 3.53408C12.1 3.75001 12.1372 3.8757 12.1372 3.98321C12.1372 4.09071 12.1 4.2164 11.9352 4.43234C11.8119 4.59401 11.6404 4.77703 11.4073 5.01366ZM8.1082 2.95201L10.7893 5.63312L7.96512 8.45732C7.65744 8.76499 7.57242 8.84196 7.47601 8.8883C7.37959 8.93464 7.26638 8.95294 6.83392 9.00099C6.15143 9.07683 5.68691 9.12736 5.34176 9.11621C5.00834 9.10545 4.87373 9.03828 4.78839 8.95294C4.70304 8.86759 4.63587 8.73298 4.62511 8.39956C4.61396 8.05441 4.66449 7.58989 4.74032 6.9074C4.78837 6.47494 4.80668 6.36173 4.85302 6.26531C4.89936 6.1689 4.97633 6.08388 5.284 5.7762L8.1082 2.95201Z"
                  fill="#022D7C"/>
            <path d="M5.25557 2.29156C5.49718 2.28867 5.69069 2.09046 5.68779 1.84885C5.6849 1.60724 5.48669 1.41373 5.24508 1.41663C3.82961 1.43359 2.85804 1.51104 2.11213 2.05298C1.82738 2.25986 1.57696 2.51028 1.37008 2.79503C1.02835 3.26538 0.875329 3.81627 0.801667 4.49617C0.729484 5.16241 0.729488 6.00218 0.729492 7.07349V7.12629C0.729488 8.1976 0.729484 9.03737 0.801667 9.70361C0.875329 10.3835 1.02835 10.9344 1.37008 11.4048C1.57696 11.6895 1.82738 11.9399 2.11213 12.1468C2.58249 12.4885 3.13337 12.6416 3.81327 12.7152C4.4795 12.7874 5.31926 12.7874 6.39054 12.7874H6.4434C7.51469 12.7874 8.35448 12.7874 9.02071 12.7152C9.70061 12.6416 10.2515 12.4885 10.7219 12.1468C11.0066 11.9399 11.257 11.6895 11.4639 11.4048C12.0058 10.6588 12.0833 9.68727 12.1003 8.2718C12.1032 8.03019 11.9096 7.83198 11.668 7.82909C11.4264 7.82619 11.2282 8.01971 11.2253 8.26131C11.2078 9.72011 11.1096 10.4037 10.756 10.8904C10.6031 11.1009 10.418 11.286 10.2075 11.4389C9.91121 11.6542 9.53191 11.7797 8.92647 11.8453C8.31283 11.9118 7.52041 11.9124 6.41699 11.9124C5.31358 11.9124 4.52116 11.9118 3.90752 11.8453C3.30207 11.7797 2.92278 11.6542 2.62644 11.4389C2.41597 11.286 2.23089 11.1009 2.07797 10.8904C1.86267 10.5941 1.73717 10.2148 1.67158 9.60936C1.60509 8.99573 1.60449 8.20331 1.60449 7.09989C1.60449 5.99647 1.60509 5.20405 1.67158 4.59042C1.73717 3.98497 1.86267 3.60567 2.07797 3.30934C2.23089 3.09887 2.41597 2.91378 2.62644 2.76087C3.11315 2.40726 3.79677 2.30905 5.25557 2.29156Z"
                  fill="#022D7C"/>
        </g>
    </g>
</svg>
