<svg width="21" height="22" viewBox="0 0 21 22" fill="none" xmlns="http://www.w3.org/2000/svg">
<g id="vuesax/linear/timer-start">
<g id="timer-start">
<path id="Vector" d="M10 7.16663V11.3333" stroke="#333B4F" stroke-linecap="round" stroke-linejoin="round"/>
<path id="Vector_2" d="M13.3333 11.3333H9.99998" stroke="#333B4F" stroke-linecap="round" stroke-linejoin="round"/>
<path id="Vector_3" d="M5.18512 5.56227C8.03122 2.71617 12.651 2.71617 15.4971 5.56227C18.3432 8.40838 18.3432 13.0281 15.4971 15.8742C12.651 18.7204 8.03122 18.7204 5.18512 15.8742" stroke="#333B4F" stroke-linecap="round" stroke-linejoin="round"/>
<path id="Vector_4" d="M4.6889 15.1948L4.00537 15.8783C3.16273 16.7209 2.21403 16.4676 1.90762 15.3126L1.66013 14.3816L1.41264 13.4506C1.10623 12.2956 1.79566 11.6062 2.9506 11.9126L3.88162 12.1601L4.81265 12.4076C5.96759 12.714 6.22097 13.6627 5.37833 14.5053L4.6889 15.1948Z" stroke="#333B4F" stroke-miterlimit="10" stroke-linecap="round" stroke-linejoin="round"/>
</g>
</g>
</svg>
