<svg width="21" height="21" viewBox="0 0 21 21" fill="none" xmlns="http://www.w3.org/2000/svg">
    <g id="vuesax/linear/key">
        <g id="key">
            <path id="Vector"
                  d="M16.9912 12.9417C15.2746 14.6501 12.8162 15.1751 10.6579 14.5001L6.73289 18.4167C6.44955 18.7084 5.89122 18.8834 5.49122 18.8251L3.67455 18.5751C3.07455 18.4917 2.51622 17.9251 2.42455 17.3251L2.17455 15.5084C2.11622 15.1084 2.30789 14.5501 2.58289 14.2667L6.49955 10.3501C5.83289 8.18339 6.34955 5.72506 8.06622 4.01672C10.5246 1.55839 14.5162 1.55839 16.9829 4.01672C19.4496 6.47506 19.4496 10.4834 16.9912 12.9417Z"
                  stroke="#022D7C" stroke-miterlimit="10" stroke-linecap="round" stroke-linejoin="round"/>
            <path id="Vector_2" d="M6.24121 15.075L8.15788 16.9916" stroke="#022D7C" stroke-miterlimit="10"
                  stroke-linecap="round" stroke-linejoin="round"/>
            <path id="Vector_3"
                  d="M12.583 9.66663C13.2734 9.66663 13.833 9.10698 13.833 8.41663C13.833 7.72627 13.2734 7.16663 12.583 7.16663C11.8927 7.16663 11.333 7.72627 11.333 8.41663C11.333 9.10698 11.8927 9.66663 12.583 9.66663Z"
                  stroke="#022D7C" stroke-linecap="round" stroke-linejoin="round"/>
        </g>
    </g>
</svg>
