<svg width="1190" height="218" viewBox="0 0 1190 218" fill="none" xmlns="http://www.w3.org/2000/svg">
<mask id="mask0_86_309" style="mask-type:alpha" maskUnits="userSpaceOnUse" x="0" y="0" width="1190" height="218">
<rect width="1190" height="218" fill="#D9D9D9"/>
<rect x="0.5" y="0.5" width="1189" height="217" stroke="white" stroke-opacity="0.25"/>
</mask>
<g mask="url(#mask0_86_309)">
<path d="M510 419.759L551.28 421.662L570.281 384.955L611.572 386.853L630.573 350.145L671.853 352.049L690.855 315.342L732.145 317.24L751.147 280.532L792.437 282.43L811.439 245.723L852.719 247.627L871.72 210.919L913.011 212.817L932.023 176.103L973.313 178.001L992.315 141.294L1033.61 143.192L1052.61 106.484L1093.9 108.382L1112.91 71.6683L1154.2 73.566L1173.2 36.8586L1214.49 38.7564L1233.49 2.04896L1274.8 3.94053L1293.8 -32.7669L1335.1 -30.8753L1354.11 -67.5889L1395.41 -65.6974" stroke="white" stroke-opacity="0.25" stroke-miterlimit="10" stroke-linecap="round"/>
<path d="M558.535 503.824L599.815 505.728L618.816 469.02L660.107 470.918L679.108 434.211L720.388 436.114L739.39 399.407L780.68 401.305L799.682 364.597L840.972 366.495L859.974 329.788L901.254 331.692L920.255 294.984L961.546 296.882L980.558 260.168L1021.85 262.066L1040.85 225.359L1082.14 227.257L1101.14 190.549L1142.43 192.447L1161.45 155.733L1202.74 157.631L1221.74 120.924L1263.03 122.821L1282.03 86.114L1323.33 88.0056L1342.33 51.2982L1383.63 53.1897L1402.65 16.4762L1443.95 18.3677" stroke="white" stroke-opacity="0.25" stroke-miterlimit="10" stroke-linecap="round"/>
<path d="M607.07 587.889L648.35 589.793L667.351 553.085L708.642 554.983L727.643 518.276L768.923 520.18L787.925 483.472L829.215 485.37L848.217 448.662L889.507 450.56L908.509 413.853L949.789 415.757L968.79 379.049L1010.08 380.947L1029.09 344.234L1070.38 346.131L1089.39 309.424L1130.68 311.322L1149.68 274.614L1190.97 276.512L1209.98 239.798L1251.27 241.696L1270.27 204.989L1311.56 206.887L1330.56 170.179L1371.87 172.071L1390.87 135.363L1432.17 137.255L1451.18 100.541L1492.48 102.433" stroke="white" stroke-opacity="0.25" stroke-miterlimit="10" stroke-linecap="round"/>
<path d="M534.268 461.791L575.547 463.695L594.549 426.988L635.839 428.885L654.841 392.178L696.121 394.082L715.122 357.375L756.413 359.272L775.414 322.565L816.705 324.463L835.706 287.755L876.986 289.659L895.988 252.952L937.278 254.85L956.291 218.136L997.581 220.034L1016.58 183.326L1057.87 185.224L1076.87 148.517L1118.17 150.414L1137.18 113.701L1178.47 115.599L1197.47 78.8912L1238.76 80.789L1257.76 44.0816L1299.06 45.9731L1318.06 9.26571L1359.37 11.1573L1378.38 -25.5563L1419.68 -23.6648" stroke="white" stroke-opacity="0.25" stroke-miterlimit="10" stroke-linecap="round"/>
<path d="M582.803 545.856L624.082 547.76L643.084 511.053L684.374 512.95L703.376 476.243L744.656 478.147L763.657 441.44L804.948 443.337L823.949 406.63L865.24 408.528L884.242 371.82L925.521 373.724L944.523 337.017L985.813 338.915L1004.83 302.201L1046.12 304.099L1065.12 267.391L1106.41 269.289L1125.41 232.582L1166.7 234.48L1185.71 197.766L1227 199.664L1246 162.956L1287.3 164.854L1306.3 128.147L1347.6 130.038L1366.6 93.3308L1407.9 95.2223L1426.91 58.5088L1468.21 60.4003" stroke="white" stroke-opacity="0.25" stroke-miterlimit="10" stroke-linecap="round"/>
<path d="M631.287 629.834L672.617 631.825L691.569 595.031L732.909 597.015L751.861 560.221L793.191 562.212L812.142 525.418L853.483 527.402L872.434 490.608L913.775 492.593L932.726 455.798L974.056 457.789L993.008 420.995L1034.35 422.98L1053.31 386.179L1094.65 388.164L1113.6 351.369L1154.94 353.354L1173.89 316.56L1215.24 318.544L1234.2 281.744L1275.54 283.729L1294.49 246.934L1335.83 248.919L1354.78 212.125L1396.13 214.103L1415.08 177.309L1456.44 179.287L1475.4 142.487L1516.75 144.465" stroke="white" stroke-opacity="0.25" stroke-miterlimit="10" stroke-linecap="round"/>
<path d="M522.109 440.731L563.438 442.722L582.39 405.928L623.731 407.913L642.682 371.118L684.012 373.109L702.963 336.315L744.304 338.299L763.255 301.505L804.596 303.49L823.548 266.695L864.877 268.686L883.829 231.892L925.17 233.877L944.132 197.076L985.472 199.061L1004.42 162.267L1045.76 164.251L1064.72 127.457L1106.06 129.442L1125.02 92.6411L1166.36 94.6257L1185.31 57.8314L1226.65 59.8161L1245.6 23.0217L1286.95 25.0003L1305.91 -11.7941L1347.26 -9.81559L1366.22 -46.6161L1407.57 -44.6376" stroke="white" stroke-opacity="0.25" stroke-miterlimit="10" stroke-linecap="round"/>
<path d="M570.644 524.796L611.923 526.7L630.925 489.993L672.215 491.891L691.217 455.183L732.497 457.087L751.498 420.38L792.789 422.278L811.791 385.57L853.081 387.468L872.083 350.761L913.362 352.664L932.364 315.957L973.654 317.855L992.667 281.141L1033.96 283.039L1052.96 246.332L1094.25 248.229L1113.25 211.522L1154.54 213.42L1173.55 176.706L1214.84 178.604L1233.85 141.896L1275.14 143.794L1294.14 107.087L1335.44 108.978L1354.44 72.271L1395.74 74.1625L1414.75 37.449L1456.06 39.3405" stroke="white" stroke-opacity="0.25" stroke-miterlimit="10" stroke-linecap="round"/>
<path d="M619.179 608.861L660.458 610.765L679.46 574.058L720.75 575.956L739.752 539.248L781.032 541.152L800.033 504.445L841.324 506.343L860.326 469.635L901.616 471.533L920.618 434.826L961.897 436.73L980.899 400.022L1022.19 401.92L1041.2 365.206L1082.49 367.104L1101.49 330.397L1142.78 332.294L1161.79 295.587L1203.08 297.485L1222.09 260.771L1263.38 262.669L1282.38 225.962L1323.67 227.859L1342.67 191.152L1383.97 193.043L1402.98 156.336L1444.28 158.228L1463.29 121.514L1504.59 123.406" stroke="white" stroke-opacity="0.25" stroke-miterlimit="10" stroke-linecap="round"/>
<path d="M546.376 482.764L587.706 484.755L606.658 447.96L647.998 449.945L666.95 413.151L708.279 415.142L727.231 378.347L768.572 380.332L787.523 343.538L828.864 345.522L847.815 308.728L889.145 310.719L908.096 273.925L949.437 275.909L968.399 239.109L1009.74 241.093L1028.69 204.299L1070.03 206.284L1088.98 169.489L1130.32 171.474L1149.29 134.674L1190.63 136.658L1209.58 99.864L1250.92 101.849L1269.87 65.0543L1311.22 67.0328L1330.17 30.2385L1371.52 32.217L1390.49 -4.58352L1431.84 -2.60504" stroke="white" stroke-opacity="0.25" stroke-miterlimit="10" stroke-linecap="round"/>
<path d="M594.911 566.829L636.191 568.733L655.193 532.026L696.483 533.923L715.485 497.216L756.764 499.12L775.766 462.412L817.056 464.31L836.058 427.603L877.348 429.501L896.35 392.793L937.63 394.697L956.632 357.99L997.922 359.887L1016.93 323.174L1058.22 325.072L1077.23 288.364L1118.52 290.262L1137.52 253.555L1178.81 255.452L1197.82 218.739L1239.11 220.636L1258.11 183.929L1299.4 185.827L1318.41 149.119L1359.71 151.011L1378.71 114.304L1420.01 116.195L1439.02 79.4815L1480.32 81.3731" stroke="white" stroke-opacity="0.25" stroke-miterlimit="10" stroke-linecap="round"/>
<path d="M516.054 430.245L557.334 432.149L576.336 395.442L617.626 397.339L636.628 360.632L677.908 362.536L696.909 325.828L738.2 327.726L757.201 291.019L798.492 292.917L817.493 256.209L858.773 258.113L877.775 221.406L919.065 223.303L938.078 186.59L979.368 188.488L998.37 151.78L1039.66 153.678L1058.66 116.971L1099.95 118.868L1118.96 82.1547L1160.25 84.0525L1179.26 47.3451L1220.55 49.2428L1239.55 12.5354L1280.85 14.427L1299.85 -22.2804L1341.15 -20.3889L1360.16 -57.1024L1401.47 -55.2109" stroke="white" stroke-opacity="0.25" stroke-miterlimit="10" stroke-linecap="round"/>
<path d="M564.589 514.31L605.869 516.214L624.871 479.507L666.161 481.404L685.163 444.697L726.442 446.601L745.444 409.894L786.735 411.791L805.736 375.084L847.027 376.982L866.028 340.274L907.308 342.178L926.31 305.471L967.6 307.369L986.612 270.655L1027.9 272.553L1046.9 235.845L1088.19 237.743L1107.2 201.036L1148.49 202.933L1167.5 166.22L1208.79 168.118L1227.79 131.41L1269.08 133.308L1288.08 96.6005L1329.38 98.492L1348.39 61.7846L1389.69 63.6762L1408.7 26.9626L1450 28.8542" stroke="white" stroke-opacity="0.25" stroke-miterlimit="10" stroke-linecap="round"/>
<path d="M613.124 598.375L654.404 600.279L673.406 563.572L714.696 565.469L733.698 528.762L774.977 530.666L793.979 493.959L835.27 495.856L854.271 459.149L895.562 461.047L914.563 424.339L955.843 426.243L974.845 389.536L1016.14 391.434L1035.15 354.72L1076.44 356.618L1095.44 319.91L1136.73 321.808L1155.73 285.101L1197.02 286.998L1216.03 250.285L1257.32 252.183L1276.33 215.475L1317.62 217.373L1336.62 180.666L1377.92 182.557L1396.92 145.85L1438.22 147.741L1457.23 111.028L1498.54 112.919" stroke="white" stroke-opacity="0.25" stroke-miterlimit="10" stroke-linecap="round"/>
<path d="M540.322 472.277L581.602 474.181L600.603 437.474L641.894 439.372L660.895 402.664L702.175 404.568L721.177 367.861L762.467 369.759L781.469 333.051L822.759 334.949L841.761 298.242L883.04 300.146L902.042 263.438L943.333 265.336L962.345 228.622L1003.64 230.52L1022.64 193.813L1063.93 195.71L1082.93 159.003L1124.22 160.901L1143.23 124.187L1184.52 126.085L1203.52 89.3776L1244.81 91.2753L1263.82 54.5679L1305.12 56.4594L1324.12 19.752L1365.42 21.6436L1384.43 -15.07L1425.73 -13.1784" stroke="white" stroke-opacity="0.25" stroke-miterlimit="10" stroke-linecap="round"/>
<path d="M588.857 556.343L630.137 558.246L649.138 521.539L690.429 523.437L709.43 486.729L750.71 488.633L769.712 451.926L811.002 453.824L830.004 417.116L871.294 419.014L890.296 382.307L931.575 384.211L950.577 347.503L991.868 349.401L1010.88 312.687L1052.17 314.585L1071.17 277.878L1112.46 279.775L1131.46 243.068L1172.75 244.966L1191.77 208.252L1233.06 210.15L1252.06 173.443L1293.35 175.34L1312.35 138.633L1353.65 140.525L1372.65 103.817L1413.96 105.709L1432.97 68.9951L1474.27 70.8866" stroke="white" stroke-opacity="0.25" stroke-miterlimit="10" stroke-linecap="round"/>
<path d="M528.213 451.305L569.493 453.209L588.495 416.501L629.785 418.399L648.787 381.692L690.066 383.596L709.068 346.888L750.358 348.786L769.36 312.078L810.65 313.976L829.652 277.269L870.932 279.173L889.934 242.465L931.224 244.363L950.236 207.65L991.527 209.547L1010.53 172.84L1051.82 174.738L1070.82 138.03L1112.11 139.928L1131.12 103.214L1172.41 105.112L1191.42 68.4048L1232.71 70.3025L1251.71 33.5951L1293.01 35.4867L1312.01 -1.22074L1353.31 0.670827L1372.32 -36.0427L1413.62 -34.1512" stroke="white" stroke-opacity="0.25" stroke-miterlimit="10" stroke-linecap="round"/>
<path d="M576.698 535.283L618.028 537.274L636.979 500.479L678.32 502.464L697.271 465.67L738.601 467.661L757.553 430.866L798.893 432.851L817.845 396.057L859.185 398.041L878.137 361.247L919.467 363.238L938.418 326.443L979.759 328.428L998.721 291.628L1040.06 293.612L1059.01 256.818L1100.35 258.803L1119.31 222.008L1160.65 223.993L1179.61 187.192L1220.95 189.177L1239.9 152.383L1281.24 154.367L1300.19 117.573L1341.54 119.552L1360.5 82.7573L1401.85 84.7358L1420.81 47.9353L1462.16 49.9138" stroke="white" stroke-opacity="0.25" stroke-miterlimit="10" stroke-linecap="round"/>
<path d="M625.233 619.348L666.513 621.252L685.514 584.544L726.805 586.442L745.806 549.735L787.086 551.639L806.088 514.931L847.378 516.829L866.38 480.122L907.67 482.019L926.672 445.312L967.952 447.216L986.953 410.509L1028.24 412.406L1047.26 375.693L1088.55 377.591L1107.55 340.883L1148.84 342.781L1167.84 306.073L1209.13 307.971L1228.14 271.258L1269.43 273.155L1288.44 236.448L1329.73 238.346L1348.73 201.638L1390.03 203.53L1409.03 166.822L1450.33 168.714L1469.34 132L1510.64 133.892" stroke="white" stroke-opacity="0.25" stroke-miterlimit="10" stroke-linecap="round"/>
<path d="M552.481 493.337L593.76 495.241L612.762 458.534L654.052 460.431L673.054 423.724L714.334 425.628L733.335 388.921L774.626 390.818L793.628 354.111L834.918 356.009L853.92 319.301L895.199 321.205L914.201 284.498L955.491 286.396L974.504 249.682L1015.79 251.58L1034.8 214.872L1076.09 216.77L1095.09 180.063L1136.38 181.96L1155.39 145.247L1196.68 147.145L1215.68 110.437L1256.97 112.335L1275.97 75.6276L1317.28 77.5191L1336.28 40.8117L1377.58 42.7033L1396.59 5.98972L1437.89 7.88125" stroke="white" stroke-opacity="0.25" stroke-miterlimit="10" stroke-linecap="round"/>
<path d="M600.966 577.315L642.295 579.306L661.247 542.512L702.588 544.497L721.539 507.702L762.869 509.693L781.82 472.899L823.161 474.883L842.112 438.089L883.453 440.074L902.404 403.279L943.734 405.27L962.686 368.476L1004.03 370.461L1022.99 333.66L1064.33 335.645L1083.28 298.851L1124.62 300.835L1143.57 264.041L1184.91 266.026L1203.88 229.225L1245.22 231.21L1264.17 194.415L1305.51 196.4L1324.46 159.606L1365.81 161.584L1384.76 124.79L1426.11 126.768L1445.08 89.9679L1486.43 91.9463" stroke="white" stroke-opacity="0.25" stroke-miterlimit="10" stroke-linecap="round"/>
<path d="M-230 253.759L-188.72 255.662L-169.719 218.955L-128.428 220.853L-109.427 184.145L-68.1469 186.049L-49.1452 149.342L-7.85485 151.24L11.1468 114.532L52.4372 116.43L71.4389 79.7227L112.719 81.6267L131.72 44.9193L173.011 46.817L192.023 10.1034L233.313 12.0012L252.315 -24.7062L293.606 -22.8085L312.607 -59.5159L353.898 -57.6181L372.91 -94.3317L414.2 -92.434L433.202 -129.141L474.492 -127.244L493.494 -163.951L534.795 -162.059L553.797 -198.767L595.098 -196.875L614.111 -233.589L655.412 -231.697" stroke="white" stroke-opacity="0.25" stroke-miterlimit="10" stroke-linecap="round"/>
<path d="M-181.465 337.824L-140.185 339.728L-121.184 303.02L-79.8931 304.918L-60.8914 268.211L-19.6118 270.114L-0.610075 233.407L40.6803 235.305L59.682 198.597L100.972 200.495L119.974 163.788L161.254 165.692L180.255 128.984L221.546 130.882L240.558 94.1685L281.849 96.0662L300.85 59.3588L342.141 61.2566L361.142 24.5492L402.433 26.4469L421.445 -10.2667L462.736 -8.36892L481.737 -45.0763L523.028 -43.1786L542.029 -79.886L583.33 -77.9944L602.332 -114.702L643.633 -112.81L662.646 -149.524L703.947 -147.632" stroke="white" stroke-opacity="0.25" stroke-miterlimit="10" stroke-linecap="round"/>
<path d="M-132.93 421.889L-91.6503 423.793L-72.6486 387.085L-31.3582 388.983L-12.3565 352.276L28.9231 354.18L47.9248 317.472L89.2152 319.37L108.217 282.662L149.507 284.56L168.509 247.853L209.789 249.757L228.79 213.049L270.081 214.947L289.093 178.234L330.384 180.131L349.385 143.424L390.676 145.322L409.677 108.614L450.968 110.512L469.98 73.7984L511.27 75.6961L530.272 38.9888L571.563 40.8865L590.564 4.17909L631.865 6.07066L650.867 -30.6368L692.168 -28.7452L711.181 -65.4588L752.482 -63.5672" stroke="white" stroke-opacity="0.25" stroke-miterlimit="10" stroke-linecap="round"/>
<path d="M-205.732 295.791L-164.453 297.695L-145.451 260.988L-104.161 262.885L-85.159 226.178L-43.8794 228.082L-24.8777 191.375L16.4127 193.272L35.4144 156.565L76.7048 158.463L95.7065 121.755L136.986 123.659L155.988 86.9519L197.278 88.8496L216.291 52.136L257.581 54.0338L276.583 17.3263L317.873 19.2241L336.875 -17.4833L378.165 -15.5855L397.178 -52.2991L438.468 -50.4014L457.47 -87.1088L498.76 -85.211L517.762 -121.918L559.063 -120.027L578.065 -156.734L619.366 -154.843L638.378 -191.556L679.679 -189.665" stroke="white" stroke-opacity="0.25" stroke-miterlimit="10" stroke-linecap="round"/>
<path d="M-157.198 379.856L-115.918 381.76L-96.9162 345.053L-55.6258 346.95L-36.6241 310.243L4.65555 312.147L23.6573 275.44L64.9476 277.337L83.9493 240.63L125.24 242.528L144.241 205.82L185.521 207.724L204.523 171.017L245.813 172.915L264.826 136.201L306.116 138.099L325.118 101.391L366.408 103.289L385.41 66.5818L426.7 68.4795L445.712 31.7659L487.003 33.6637L506.005 -3.0437L547.295 -1.14597L566.297 -37.8534L607.598 -35.9618L626.6 -72.6692L667.901 -70.7777L686.913 -107.491L728.214 -105.6" stroke="white" stroke-opacity="0.25" stroke-miterlimit="10" stroke-linecap="round"/>
<path d="M-108.713 463.834L-67.3828 465.825L-48.4313 429.031L-7.09072 431.015L11.8608 394.221L53.1906 396.212L72.1421 359.418L113.483 361.402L132.434 324.608L173.775 326.593L192.726 289.798L234.056 291.789L253.008 254.995L294.348 256.98L313.31 220.179L354.651 222.164L373.603 185.369L414.943 187.354L433.895 150.56L475.235 152.544L494.197 115.744L535.538 117.729L554.489 80.9343L595.83 82.919L614.782 46.1246L656.133 48.1032L675.084 11.3088L716.436 13.2873L735.398 -23.5132L776.749 -21.5347" stroke="white" stroke-opacity="0.25" stroke-miterlimit="10" stroke-linecap="round"/>
<path d="M-217.891 274.731L-176.562 276.722L-157.61 239.928L-116.269 241.913L-97.3179 205.118L-55.9881 207.109L-37.0366 170.315L4.30399 172.299L23.2555 135.505L64.5961 137.49L83.5476 100.695L124.877 102.686L143.829 65.892L185.17 67.8767L204.132 31.0762L245.472 33.0609L264.424 -3.73347L305.764 -1.74877L324.716 -38.5431L366.056 -36.5584L385.019 -73.3589L426.359 -71.3743L445.311 -108.169L486.651 -106.184L505.603 -142.978L546.954 -141L565.906 -177.794L607.257 -175.816L626.219 -212.616L667.57 -210.638" stroke="white" stroke-opacity="0.25" stroke-miterlimit="10" stroke-linecap="round"/>
<path d="M-169.356 358.796L-128.077 360.7L-109.075 323.993L-67.7845 325.891L-48.7828 289.183L-7.50314 291.087L11.4986 254.38L52.7889 256.278L71.7906 219.57L113.081 221.468L132.083 184.761L173.362 186.664L192.364 149.957L233.654 151.855L252.667 115.141L293.957 117.039L312.959 80.3316L354.249 82.2293L373.251 45.522L414.541 47.4197L433.554 10.7061L474.844 12.6039L493.846 -24.1035L535.136 -22.2058L554.138 -58.9132L595.439 -57.0216L614.441 -93.729L655.742 -91.8375L674.754 -128.551L716.055 -126.66" stroke="white" stroke-opacity="0.25" stroke-miterlimit="10" stroke-linecap="round"/>
<path d="M-120.821 442.861L-79.5416 444.765L-60.5399 408.058L-19.2496 409.956L-0.247871 373.248L41.0318 375.152L60.0335 338.445L101.324 340.343L120.326 303.635L161.616 305.533L180.618 268.826L221.897 270.73L240.899 234.022L282.189 235.92L301.202 199.206L342.492 201.104L361.494 164.397L402.784 166.294L421.786 129.587L463.076 131.485L482.089 94.7712L523.379 96.6689L542.381 59.9615L583.671 61.8593L602.673 25.1519L643.974 27.0434L662.976 -9.66398L704.277 -7.77241L723.289 -44.486L764.59 -42.5945" stroke="white" stroke-opacity="0.25" stroke-miterlimit="10" stroke-linecap="round"/>
<path d="M-193.624 316.764L-152.294 318.755L-133.342 281.96L-92.0019 283.945L-73.0504 247.151L-31.7205 249.142L-12.769 212.347L28.5716 214.332L47.5231 177.538L88.8636 179.522L107.815 142.728L149.145 144.719L168.096 107.925L209.437 109.909L228.399 73.1088L269.74 75.0935L288.691 38.2991L330.032 40.2838L348.983 3.48948L390.324 5.47418L409.286 -31.3263L450.627 -29.3417L469.578 -66.136L510.919 -64.1513L529.87 -100.946L571.222 -98.9672L590.173 -135.762L631.525 -133.783L650.487 -170.584L691.838 -168.605" stroke="white" stroke-opacity="0.25" stroke-miterlimit="10" stroke-linecap="round"/>
<path d="M-145.089 400.829L-103.809 402.733L-84.8075 366.026L-43.5171 367.923L-24.5154 331.216L16.7642 333.12L35.7659 296.412L77.0563 298.31L96.058 261.603L137.348 263.501L156.35 226.793L197.63 228.697L216.631 191.99L257.922 193.887L276.934 157.174L318.225 159.072L337.226 122.364L378.517 124.262L397.518 87.5545L438.809 89.4523L457.821 52.7387L499.112 54.6365L518.113 17.9291L559.404 19.8268L578.405 -16.8806L619.706 -14.989L638.708 -51.6964L680.009 -49.8049L699.022 -86.5185L740.323 -84.6269" stroke="white" stroke-opacity="0.25" stroke-miterlimit="10" stroke-linecap="round"/>
<path d="M-223.946 264.245L-182.666 266.149L-163.664 229.442L-122.374 231.339L-103.372 194.632L-62.0925 196.536L-43.0908 159.828L-1.80041 161.726L17.2013 125.019L58.4917 126.917L77.4934 90.2091L118.773 92.1131L137.775 55.4057L179.065 57.3034L198.078 20.5899L239.368 22.4876L258.37 -14.2198L299.66 -12.322L318.662 -49.0294L359.952 -47.1317L378.964 -83.8453L420.255 -81.9475L439.257 -118.655L480.547 -116.757L499.549 -153.465L540.85 -151.573L559.851 -188.28L601.153 -186.389L620.165 -223.102L661.466 -221.211" stroke="white" stroke-opacity="0.25" stroke-miterlimit="10" stroke-linecap="round"/>
<path d="M-175.411 348.31L-134.131 350.214L-115.129 313.507L-73.8389 315.404L-54.8372 278.697L-13.5576 280.601L5.44412 243.894L46.7345 245.791L65.7362 209.084L107.027 210.982L126.028 174.274L167.308 176.178L186.31 139.471L227.6 141.369L246.612 104.655L287.903 106.553L306.905 69.8453L348.195 71.743L367.197 35.0356L408.487 36.9334L427.499 0.219799L468.79 2.11753L487.791 -34.5898L529.082 -32.6921L548.084 -69.3995L589.385 -67.508L608.386 -104.215L649.687 -102.324L668.7 -139.037L710.001 -137.146" stroke="white" stroke-opacity="0.25" stroke-miterlimit="10" stroke-linecap="round"/>
<path d="M-126.876 432.375L-85.5961 434.279L-66.5944 397.572L-25.304 399.469L-6.30231 362.762L34.9773 364.666L53.979 327.959L95.2694 329.856L114.271 293.149L155.561 295.047L174.563 258.339L215.843 260.243L234.845 223.536L276.135 225.434L295.147 188.72L336.438 190.618L355.439 153.91L396.73 155.808L415.731 119.101L457.022 120.998L476.034 84.2849L517.325 86.1826L536.326 49.4752L577.617 51.373L596.618 14.6655L637.92 16.5571L656.921 -20.1503L698.222 -18.2587L717.235 -54.9723L758.536 -53.0808" stroke="white" stroke-opacity="0.25" stroke-miterlimit="10" stroke-linecap="round"/>
<path d="M-199.678 306.277L-158.399 308.181L-139.397 271.474L-98.1065 273.372L-79.1048 236.664L-37.8252 238.568L-18.8235 201.861L22.4669 203.759L41.4686 167.051L82.759 168.949L101.761 132.242L143.04 134.146L162.042 97.4382L203.332 99.3359L222.345 62.6223L263.635 64.5201L282.637 27.8127L323.927 29.7104L342.929 -6.99697L384.219 -5.09922L403.232 -41.8128L444.522 -39.9151L463.524 -76.6224L504.814 -74.7247L523.816 -111.432L565.117 -109.541L584.119 -146.248L625.42 -144.356L644.432 -181.07L685.733 -179.178" stroke="white" stroke-opacity="0.25" stroke-miterlimit="10" stroke-linecap="round"/>
<path d="M-151.143 390.343L-109.863 392.246L-90.8617 355.539L-49.5713 357.437L-30.5696 320.729L10.71 322.633L29.7117 285.926L71.0021 287.824L90.0038 251.116L131.294 253.014L150.296 216.307L191.575 218.211L210.577 181.503L251.868 183.401L270.88 146.687L312.17 148.585L331.172 111.878L372.462 113.775L391.464 77.0681L432.755 78.9658L451.767 42.2523L493.057 44.15L512.059 7.44263L553.349 9.34036L572.351 -27.3671L613.652 -25.4755L632.654 -62.1829L673.955 -60.2913L692.967 -97.0049L734.269 -95.1134" stroke="white" stroke-opacity="0.25" stroke-miterlimit="10" stroke-linecap="round"/>
<path d="M-211.787 285.305L-170.507 287.209L-151.506 250.501L-110.215 252.399L-91.2134 215.692L-49.9338 217.596L-30.9321 180.888L10.3583 182.786L29.36 146.078L70.6504 147.976L89.6521 111.269L130.932 113.173L149.933 76.4654L191.224 78.3631L210.236 41.6496L251.527 43.5473L270.528 6.8399L311.819 8.73765L330.82 -27.9697L372.111 -26.072L391.123 -62.7856L432.414 -60.8878L451.415 -97.5952L492.706 -95.6975L511.707 -132.405L553.008 -130.513L572.01 -167.221L613.311 -165.329L632.324 -202.043L673.625 -200.151" stroke="white" stroke-opacity="0.25" stroke-miterlimit="10" stroke-linecap="round"/>
<path d="M-163.302 369.283L-121.972 371.274L-103.021 334.479L-61.6801 336.464L-42.7286 299.67L-1.39874 301.661L17.5528 264.866L58.8933 266.851L77.8448 230.057L119.185 232.041L138.137 195.247L179.467 197.238L198.418 160.443L239.759 162.428L258.721 125.628L300.062 127.612L319.013 90.8179L360.354 92.8026L379.305 56.0083L420.646 57.993L439.608 21.1925L480.949 23.1771L499.9 -13.6172L541.241 -11.6325L560.192 -48.4269L601.543 -46.4484L620.495 -83.2427L661.846 -81.2642L680.809 -118.065L722.16 -116.086" stroke="white" stroke-opacity="0.25" stroke-miterlimit="10" stroke-linecap="round"/>
<path d="M-114.767 453.348L-73.4874 455.252L-54.4857 418.544L-13.1954 420.442L5.80633 383.735L47.086 385.639L66.0877 348.931L107.378 350.829L126.38 314.122L167.67 316.019L186.672 279.312L227.951 281.216L246.953 244.509L288.244 246.406L307.256 209.693L348.546 211.591L367.548 174.883L408.838 176.781L427.84 140.073L469.131 141.971L488.143 105.258L529.433 107.155L548.435 70.448L589.725 72.3457L608.727 35.6383L650.028 37.5299L669.03 0.822474L710.331 2.71404L729.343 -33.9995L770.645 -32.108" stroke="white" stroke-opacity="0.25" stroke-miterlimit="10" stroke-linecap="round"/>
<path d="M-187.519 327.337L-146.24 329.241L-127.238 292.534L-85.9476 294.431L-66.9459 257.724L-25.6662 259.628L-6.66452 222.921L34.6259 224.818L53.6275 188.111L94.9179 190.009L113.92 153.301L155.199 155.205L174.201 118.498L215.491 120.396L234.504 83.682L275.794 85.5798L294.796 48.8724L336.086 50.7701L355.088 14.0627L396.378 15.9605L415.391 -20.7531L456.681 -18.8554L475.683 -55.5627L516.973 -53.665L535.975 -90.3724L577.276 -88.4809L596.278 -125.188L637.579 -123.297L656.591 -160.01L697.892 -158.119" stroke="white" stroke-opacity="0.25" stroke-miterlimit="10" stroke-linecap="round"/>
<path d="M-139.034 411.315L-97.7046 413.306L-78.7531 376.512L-37.4125 378.497L-18.461 341.702L22.8688 343.693L41.8203 306.899L83.1609 308.883L102.112 272.089L143.453 274.074L162.404 237.279L203.734 239.27L222.686 202.476L264.026 204.461L282.989 167.66L324.329 169.645L343.281 132.851L384.621 134.835L403.573 98.0409L444.913 100.026L463.876 63.225L505.216 65.2097L524.168 28.4154L565.508 30.4001L584.46 -6.39427L625.811 -4.41576L644.763 -41.2101L686.114 -39.2316L705.076 -76.0321L746.427 -74.0537" stroke="white" stroke-opacity="0.25" stroke-miterlimit="10" stroke-linecap="round"/>
<path d="M260 266.759L301.28 268.662L320.281 231.955L361.572 233.853L380.573 197.145L421.853 199.049L440.855 162.342L482.145 164.24L501.147 127.532L542.437 129.43L561.439 92.7227L602.719 94.6267L621.72 57.9193L663.011 59.817L682.023 23.1034L723.313 25.0012L742.315 -11.7062L783.606 -9.8085L802.607 -46.5159L843.898 -44.6181L862.91 -81.3317L904.2 -79.434L923.202 -116.141L964.492 -114.244L983.494 -150.951L1024.8 -149.059L1043.8 -185.767L1085.1 -183.875L1104.11 -220.589L1145.41 -218.697" stroke="white" stroke-opacity="0.25" stroke-miterlimit="10" stroke-linecap="round"/>
<path d="M308.535 350.824L349.815 352.728L368.816 316.02L410.107 317.918L429.108 281.211L470.388 283.114L489.39 246.407L530.68 248.305L549.682 211.597L590.972 213.495L609.974 176.788L651.254 178.692L670.255 141.984L711.546 143.882L730.558 107.168L771.848 109.066L790.85 72.3588L832.141 74.2566L851.142 37.5492L892.433 39.4469L911.445 2.73335L952.735 4.63108L971.737 -32.0763L1013.03 -30.1786L1032.03 -66.886L1073.33 -64.9944L1092.33 -101.702L1133.63 -99.8103L1152.65 -136.524L1193.95 -134.632" stroke="white" stroke-opacity="0.25" stroke-miterlimit="10" stroke-linecap="round"/>
<path d="M357.07 434.889L398.35 436.793L417.351 400.085L458.642 401.983L477.643 365.276L518.923 367.18L537.925 330.472L579.215 332.37L598.217 295.662L639.507 297.56L658.509 260.853L699.789 262.757L718.79 226.049L760.081 227.947L779.093 191.234L820.384 193.131L839.385 156.424L880.676 158.322L899.677 121.614L940.968 123.512L959.98 86.7984L1001.27 88.6961L1020.27 51.9888L1061.56 53.8865L1080.56 17.1791L1121.87 19.0707L1140.87 -17.6368L1182.17 -15.7452L1201.18 -52.4588L1242.48 -50.5672" stroke="white" stroke-opacity="0.25" stroke-miterlimit="10" stroke-linecap="round"/>
<path d="M284.268 308.791L325.547 310.695L344.549 273.988L385.839 275.885L404.841 239.178L446.121 241.082L465.122 204.375L506.413 206.272L525.414 169.565L566.705 171.463L585.706 134.755L626.986 136.659L645.988 99.9519L687.278 101.85L706.291 65.136L747.581 67.0338L766.583 30.3263L807.873 32.2241L826.875 -4.4833L868.165 -2.58555L887.178 -39.2991L928.468 -37.4014L947.47 -74.1088L988.76 -72.211L1007.76 -108.918L1049.06 -107.027L1068.06 -143.734L1109.37 -141.843L1128.38 -178.556L1169.68 -176.665" stroke="white" stroke-opacity="0.25" stroke-miterlimit="10" stroke-linecap="round"/>
<path d="M332.803 392.856L374.082 394.76L393.084 358.053L434.374 359.95L453.376 323.243L494.656 325.147L513.657 288.44L554.948 290.337L573.949 253.63L615.24 255.528L634.242 218.82L675.521 220.724L694.523 184.017L735.813 185.915L754.826 149.201L796.116 151.099L815.118 114.391L856.408 116.289L875.41 79.5818L916.7 81.4795L935.713 44.7659L977.003 46.6637L996.005 9.9563L1037.3 11.854L1056.3 -24.8534L1097.6 -22.9618L1116.6 -59.6692L1157.9 -57.7777L1176.91 -94.4912L1218.21 -92.5997" stroke="white" stroke-opacity="0.25" stroke-miterlimit="10" stroke-linecap="round"/>
<path d="M381.287 476.834L422.617 478.825L441.569 442.031L482.909 444.015L501.861 407.221L543.191 409.212L562.142 372.418L603.483 374.402L622.434 337.608L663.775 339.593L682.726 302.798L724.056 304.789L743.008 267.995L784.348 269.98L803.31 233.179L844.651 235.164L863.603 198.369L904.943 200.354L923.895 163.56L965.235 165.544L984.197 128.744L1025.54 130.729L1044.49 93.9343L1085.83 95.919L1104.78 59.1246L1146.13 61.1032L1165.08 24.3088L1206.44 26.2873L1225.4 -10.5132L1266.75 -8.53473" stroke="white" stroke-opacity="0.25" stroke-miterlimit="10" stroke-linecap="round"/>
<path d="M272.109 287.731L313.438 289.722L332.39 252.928L373.731 254.913L392.682 218.118L434.012 220.109L452.963 183.315L494.304 185.299L513.255 148.505L554.596 150.49L573.548 113.695L614.877 115.686L633.829 78.892L675.17 80.8767L694.132 44.0762L735.472 46.0609L754.424 9.26653L795.764 11.2512L814.716 -25.5431L856.056 -23.5584L875.019 -60.3589L916.359 -58.3743L935.311 -95.1686L976.651 -93.1839L995.603 -129.978L1036.95 -128L1055.91 -164.794L1097.26 -162.816L1116.22 -199.616L1157.57 -197.638" stroke="white" stroke-opacity="0.25" stroke-miterlimit="10" stroke-linecap="round"/>
<path d="M320.644 371.796L361.923 373.7L380.925 336.993L422.215 338.891L441.217 302.183L482.497 304.087L501.498 267.38L542.789 269.278L561.791 232.57L603.081 234.468L622.083 197.761L663.362 199.664L682.364 162.957L723.654 164.855L742.667 128.141L783.957 130.039L802.959 93.3316L844.249 95.2293L863.251 58.522L904.541 60.4197L923.554 23.7061L964.844 25.6039L983.846 -11.1035L1025.14 -9.20578L1044.14 -45.9132L1085.44 -44.0216L1104.44 -80.729L1145.74 -78.8375L1164.75 -115.551L1206.06 -113.66" stroke="white" stroke-opacity="0.25" stroke-miterlimit="10" stroke-linecap="round"/>
<path d="M369.179 455.861L410.458 457.765L429.46 421.058L470.75 422.956L489.752 386.248L531.032 388.152L550.033 351.445L591.324 353.343L610.326 316.635L651.616 318.533L670.618 281.826L711.897 283.73L730.899 247.022L772.189 248.92L791.202 212.206L832.492 214.104L851.494 177.397L892.784 179.294L911.786 142.587L953.076 144.485L972.089 107.771L1013.38 109.669L1032.38 72.9615L1073.67 74.8593L1092.67 38.1519L1133.97 40.0434L1152.98 3.33602L1194.28 5.22759L1213.29 -31.486L1254.59 -29.5945" stroke="white" stroke-opacity="0.25" stroke-miterlimit="10" stroke-linecap="round"/>
<path d="M296.376 329.764L337.706 331.755L356.658 294.96L397.998 296.945L416.95 260.151L458.279 262.142L477.231 225.347L518.572 227.332L537.523 190.538L578.864 192.522L597.815 155.728L639.145 157.719L658.096 120.925L699.437 122.909L718.399 86.1088L759.74 88.0935L778.691 51.2991L820.032 53.2838L838.983 16.4895L880.324 18.4742L899.286 -18.3263L940.627 -16.3417L959.578 -53.136L1000.92 -51.1513L1019.87 -87.9457L1061.22 -85.9672L1080.17 -122.762L1121.52 -120.783L1140.49 -157.584L1181.84 -155.605" stroke="white" stroke-opacity="0.25" stroke-miterlimit="10" stroke-linecap="round"/>
<path d="M344.911 413.829L386.191 415.733L405.193 379.026L446.483 380.923L465.485 344.216L506.764 346.12L525.766 309.412L567.056 311.31L586.058 274.603L627.348 276.501L646.35 239.793L687.63 241.697L706.632 204.99L747.922 206.887L766.934 170.174L808.225 172.072L827.226 135.364L868.517 137.262L887.518 100.555L928.809 102.452L947.821 65.7387L989.112 67.6365L1008.11 30.9291L1049.4 32.8268L1068.41 -3.8806L1109.71 -1.98904L1128.71 -38.6964L1170.01 -36.8049L1189.02 -73.5185L1230.32 -71.6269" stroke="white" stroke-opacity="0.25" stroke-miterlimit="10" stroke-linecap="round"/>
<path d="M266.054 277.245L307.334 279.149L326.336 242.442L367.626 244.339L386.628 207.632L427.908 209.536L446.909 172.828L488.2 174.726L507.201 138.019L548.492 139.917L567.493 103.209L608.773 105.113L627.775 68.4057L669.065 70.3034L688.078 33.5899L729.368 35.4876L748.37 -1.2198L789.66 0.677953L808.662 -36.0294L849.952 -34.1317L868.964 -70.8453L910.255 -68.9475L929.257 -105.655L970.547 -103.757L989.549 -140.465L1030.85 -138.573L1049.85 -175.28L1091.15 -173.389L1110.16 -210.102L1151.47 -208.211" stroke="white" stroke-opacity="0.25" stroke-miterlimit="10" stroke-linecap="round"/>
<path d="M314.589 361.31L355.869 363.214L374.871 326.507L416.161 328.404L435.163 291.697L476.442 293.601L495.444 256.894L536.735 258.791L555.736 222.084L597.027 223.982L616.028 187.274L657.308 189.178L676.31 152.471L717.6 154.369L736.612 117.655L777.903 119.553L796.905 82.8453L838.195 84.743L857.197 48.0356L898.487 49.9334L917.499 13.2198L958.79 15.1175L977.791 -21.5898L1019.08 -19.6921L1038.08 -56.3995L1079.38 -54.508L1098.39 -91.2154L1139.69 -89.3238L1158.7 -126.037L1200 -124.146" stroke="white" stroke-opacity="0.25" stroke-miterlimit="10" stroke-linecap="round"/>
<path d="M363.124 445.375L404.404 447.279L423.406 410.572L464.696 412.469L483.698 375.762L524.977 377.666L543.979 340.959L585.27 342.856L604.271 306.149L645.562 308.047L664.563 271.339L705.843 273.243L724.845 236.536L766.135 238.434L785.147 201.72L826.438 203.618L845.44 166.91L886.73 168.808L905.732 132.101L947.022 133.998L966.034 97.2849L1007.32 99.1826L1026.33 62.4752L1067.62 64.373L1086.62 27.6655L1127.92 29.5571L1146.92 -7.1503L1188.22 -5.25874L1207.23 -41.9723L1248.54 -40.0808" stroke="white" stroke-opacity="0.25" stroke-miterlimit="10" stroke-linecap="round"/>
<path d="M290.322 319.277L331.602 321.181L350.603 284.474L391.894 286.372L410.895 249.664L452.175 251.568L471.177 214.861L512.467 216.759L531.469 180.051L572.759 181.949L591.761 145.242L633.04 147.146L652.042 110.438L693.333 112.336L712.345 75.6223L753.635 77.5201L772.637 40.8127L813.927 42.7104L832.929 6.00303L874.22 7.90078L893.232 -28.8128L934.522 -26.9151L953.524 -63.6224L994.814 -61.7247L1013.82 -98.4321L1055.12 -96.5406L1074.12 -133.248L1115.42 -131.356L1134.43 -168.07L1175.73 -166.178" stroke="white" stroke-opacity="0.25" stroke-miterlimit="10" stroke-linecap="round"/>
<path d="M338.857 403.343L380.137 405.246L399.138 368.539L440.429 370.437L459.43 333.729L500.71 335.633L519.712 298.926L561.002 300.824L580.004 264.116L621.294 266.014L640.296 229.307L681.575 231.211L700.577 194.503L741.868 196.401L760.88 159.687L802.17 161.585L821.172 124.878L862.462 126.775L881.464 90.0681L922.755 91.9658L941.767 55.2523L983.057 57.15L1002.06 20.4426L1043.35 22.3404L1062.35 -14.3671L1103.65 -12.4755L1122.65 -49.1829L1163.96 -47.2913L1182.97 -84.0049L1224.27 -82.1134" stroke="white" stroke-opacity="0.25" stroke-miterlimit="10" stroke-linecap="round"/>
<path d="M278.213 298.305L319.493 300.209L338.495 263.501L379.785 265.399L398.787 228.692L440.066 230.596L459.068 193.888L500.358 195.786L519.36 159.078L560.65 160.976L579.652 124.269L620.932 126.173L639.934 89.4654L681.224 91.3631L700.236 54.6496L741.527 56.5473L760.528 19.8399L801.819 21.7376L820.82 -14.9697L862.111 -13.072L881.123 -49.7856L922.414 -47.8878L941.415 -84.5952L982.706 -82.6975L1001.71 -119.405L1043.01 -117.513L1062.01 -154.221L1103.31 -152.329L1122.32 -189.043L1163.62 -187.151" stroke="white" stroke-opacity="0.25" stroke-miterlimit="10" stroke-linecap="round"/>
<path d="M326.698 382.283L368.028 384.274L386.979 347.479L428.32 349.464L447.271 312.67L488.601 314.661L507.553 277.866L548.893 279.851L567.845 243.057L609.185 245.041L628.137 208.247L669.467 210.238L688.418 173.443L729.759 175.428L748.721 138.628L790.062 140.612L809.013 103.818L850.354 105.803L869.305 69.0083L910.646 70.993L929.608 34.1925L970.949 36.1771L989.9 -0.617187L1031.24 1.36749L1050.19 -35.4269L1091.54 -33.4484L1110.5 -70.2427L1151.85 -68.2642L1170.81 -105.065L1212.16 -103.086" stroke="white" stroke-opacity="0.25" stroke-miterlimit="10" stroke-linecap="round"/>
<path d="M375.233 466.348L416.513 468.252L435.514 431.544L476.805 433.442L495.806 396.735L537.086 398.639L556.088 361.931L597.378 363.829L616.38 327.122L657.67 329.019L676.672 292.312L717.952 294.216L736.953 257.509L778.244 259.406L797.256 222.693L838.546 224.591L857.548 187.883L898.839 189.781L917.84 153.073L959.131 154.971L978.143 118.258L1019.43 120.155L1038.44 83.448L1079.73 85.3457L1098.73 48.6383L1140.03 50.5299L1159.03 13.8225L1200.33 15.714L1219.34 -20.9995L1260.64 -19.108" stroke="white" stroke-opacity="0.25" stroke-miterlimit="10" stroke-linecap="round"/>
<path d="M302.481 340.337L343.76 342.241L362.762 305.534L404.052 307.431L423.054 270.724L464.334 272.628L483.335 235.921L524.626 237.818L543.628 201.111L584.918 203.009L603.92 166.301L645.199 168.205L664.201 131.498L705.491 133.396L724.504 96.682L765.794 98.5798L784.796 61.8724L826.086 63.7701L845.088 27.0627L886.378 28.9605L905.391 -7.7531L946.681 -5.85537L965.683 -42.5627L1006.97 -40.665L1025.97 -77.3724L1067.28 -75.4809L1086.28 -112.188L1127.58 -110.297L1146.59 -147.01L1187.89 -145.119" stroke="white" stroke-opacity="0.25" stroke-miterlimit="10" stroke-linecap="round"/>
<path d="M350.966 424.315L392.295 426.306L411.247 389.512L452.588 391.497L471.539 354.702L512.869 356.693L531.82 319.899L573.161 321.883L592.112 285.089L633.453 287.074L652.404 250.279L693.734 252.27L712.686 215.476L754.026 217.461L772.989 180.66L814.329 182.645L833.281 145.851L874.621 147.835L893.573 111.041L934.913 113.026L953.876 76.225L995.216 78.2097L1014.17 41.4154L1055.51 43.4001L1074.46 6.60573L1115.81 8.58424L1134.76 -28.2101L1176.11 -26.2316L1195.08 -63.0321L1236.43 -61.0537" stroke="white" stroke-opacity="0.25" stroke-miterlimit="10" stroke-linecap="round"/>
<path d="M-480 100.759L-438.72 102.662L-419.719 65.9551L-378.428 67.8528L-359.427 31.1454L-318.147 33.0494L-299.145 -3.65801L-257.855 -1.76026L-238.853 -38.4676L-197.563 -36.5699L-178.561 -73.2773L-137.281 -71.3733L-118.28 -108.081L-76.9893 -106.183L-57.9769 -142.897L-16.6866 -140.999L2.31516 -177.706L43.6055 -175.808L62.6072 -212.516L103.898 -210.618L122.91 -247.332L164.2 -245.434L183.202 -282.141L224.492 -280.244L243.494 -316.951L284.795 -315.059L303.797 -351.767L345.098 -349.875L364.111 -386.589L405.412 -384.697" stroke="white" stroke-opacity="0.25" stroke-miterlimit="10" stroke-linecap="round"/>
<path d="M-431.465 184.824L-390.185 186.728L-371.184 150.02L-329.893 151.918L-310.891 115.211L-269.612 117.114L-250.61 80.4071L-209.32 82.3048L-190.318 45.5974L-149.028 47.4952L-130.026 10.7878L-88.7463 12.6917L-69.7446 -24.0157L-28.4542 -22.1179L-9.44179 -58.8315L31.8486 -56.9338L50.8503 -93.6412L92.1407 -91.7434L111.142 -128.451L152.433 -126.553L171.445 -163.267L212.736 -161.369L231.737 -198.076L273.028 -196.179L292.029 -232.886L333.33 -230.994L352.332 -267.702L393.633 -265.81L412.646 -302.524L453.947 -300.632" stroke="white" stroke-opacity="0.25" stroke-miterlimit="10" stroke-linecap="round"/>
<path d="M-382.93 268.889L-341.65 270.793L-322.649 234.085L-281.358 235.983L-262.357 199.276L-221.077 201.18L-202.075 164.472L-160.785 166.37L-141.783 129.662L-100.493 131.56L-81.491 94.8528L-40.2114 96.7568L-21.2097 60.0494L20.0807 61.9471L39.0931 25.2335L80.3835 27.1313L99.3852 -9.57612L140.676 -7.67837L159.677 -44.3858L200.968 -42.488L219.98 -79.2016L261.27 -77.3039L280.272 -114.011L321.563 -112.113L340.564 -148.821L381.865 -146.929L400.867 -183.637L442.168 -181.745L461.181 -218.459L502.482 -216.567" stroke="white" stroke-opacity="0.25" stroke-miterlimit="10" stroke-linecap="round"/>
<path d="M-455.732 142.791L-414.453 144.695L-395.451 107.988L-354.161 109.885L-335.159 73.178L-293.879 75.082L-274.878 38.3746L-233.587 40.2723L-214.586 3.56494L-173.295 5.46269L-154.294 -31.2447L-113.014 -29.3408L-94.0122 -66.0481L-52.7218 -64.1504L-33.7094 -100.864L7.58101 -98.9662L26.5827 -135.674L67.8731 -133.776L86.8748 -170.483L128.165 -168.586L147.178 -205.299L188.468 -203.401L207.47 -240.109L248.76 -238.211L267.762 -274.918L309.063 -273.027L328.065 -309.734L369.366 -307.843L388.378 -344.556L429.679 -342.665" stroke="white" stroke-opacity="0.25" stroke-miterlimit="10" stroke-linecap="round"/>
<path d="M-407.198 226.856L-365.918 228.76L-346.916 192.053L-305.626 193.95L-286.624 157.243L-245.344 159.147L-226.343 122.44L-185.052 124.337L-166.051 87.63L-124.76 89.5278L-105.759 52.8204L-64.479 54.7243L-45.4773 18.0169L-4.18685 19.9146L14.8255 -16.7989L56.1159 -14.9012L75.1176 -51.6086L116.408 -49.7108L135.41 -86.4182L176.7 -84.5205L195.712 -121.234L237.003 -119.336L256.005 -156.044L297.295 -154.146L316.297 -190.853L357.598 -188.962L376.6 -225.669L417.901 -223.778L436.913 -260.491L478.214 -258.6" stroke="white" stroke-opacity="0.25" stroke-miterlimit="10" stroke-linecap="round"/>
<path d="M-358.713 310.834L-317.383 312.825L-298.431 276.031L-257.091 278.015L-238.139 241.221L-196.809 243.212L-177.858 206.418L-136.517 208.402L-117.566 171.608L-76.2252 173.593L-57.2737 136.798L-15.9439 138.789L3.0076 101.995L44.3482 103.98L63.3104 67.1791L104.651 69.1638L123.603 32.3694L164.943 34.3541L183.895 -2.44021L225.235 -0.455508L244.197 -37.256L285.538 -35.2714L304.489 -72.0657L345.83 -70.081L364.782 -106.875L406.133 -104.897L425.084 -141.691L466.436 -139.713L485.398 -176.513L526.749 -174.535" stroke="white" stroke-opacity="0.25" stroke-miterlimit="10" stroke-linecap="round"/>
<path d="M-467.891 121.731L-426.562 123.722L-407.61 86.9279L-366.269 88.9126L-347.318 52.1182L-305.988 54.1091L-287.037 17.3148L-245.696 19.2995L-226.745 -17.4949L-185.404 -15.5102L-166.452 -52.3045L-125.123 -50.3136L-106.171 -87.108L-64.8305 -85.1233L-45.8683 -121.924L-4.52772 -119.939L14.4238 -156.733L55.7644 -154.749L74.7159 -191.543L116.056 -189.558L135.019 -226.359L176.359 -224.374L195.311 -261.169L236.651 -259.184L255.603 -295.978L296.954 -294L315.906 -330.794L357.257 -328.816L376.219 -365.616L417.57 -363.638" stroke="white" stroke-opacity="0.25" stroke-miterlimit="10" stroke-linecap="round"/>
<path d="M-419.356 205.796L-378.077 207.7L-359.075 170.993L-317.784 172.891L-298.783 136.183L-257.503 138.087L-238.501 101.38L-197.211 103.278L-178.209 66.5702L-136.919 68.4679L-117.917 31.7605L-76.6376 33.6645L-57.636 -3.0429L-16.3455 -1.14517L2.66686 -37.8587L43.9572 -35.961L62.959 -72.6684L104.249 -70.7707L123.251 -107.478L164.541 -105.58L183.554 -142.294L224.844 -140.396L243.846 -177.104L285.136 -175.206L304.138 -211.913L345.439 -210.022L364.441 -246.729L405.742 -244.837L424.754 -281.551L466.055 -279.66" stroke="white" stroke-opacity="0.25" stroke-miterlimit="10" stroke-linecap="round"/>
<path d="M-370.821 289.861L-329.542 291.765L-310.54 255.058L-269.25 256.956L-250.248 220.248L-208.968 222.152L-189.967 185.445L-148.676 187.343L-129.674 150.635L-88.3841 152.533L-69.3824 115.826L-28.1027 117.73L-9.10104 81.0222L32.1894 82.9199L51.2018 46.2063L92.4921 48.1041L111.494 11.3967L152.784 13.2944L171.786 -23.413L213.076 -21.5152L232.089 -58.2288L273.379 -56.3311L292.381 -93.0385L333.671 -91.1407L352.673 -127.848L393.974 -125.957L412.976 -162.664L454.277 -160.772L473.289 -197.486L514.59 -195.594" stroke="white" stroke-opacity="0.25" stroke-miterlimit="10" stroke-linecap="round"/>
<path d="M-443.624 163.764L-402.294 165.755L-383.342 128.96L-342.002 130.945L-323.05 94.1508L-281.721 96.1417L-262.769 59.3474L-221.428 61.3321L-202.477 24.5377L-161.136 26.5224L-142.185 -10.2719L-100.855 -8.28103L-81.9035 -45.0754L-40.5629 -43.0907L-21.6007 -79.8912L19.7399 -77.9065L38.6914 -114.701L80.032 -112.716L98.9834 -149.511L140.324 -147.526L159.286 -184.326L200.627 -182.342L219.578 -219.136L260.919 -217.151L279.87 -253.946L321.222 -251.967L340.173 -288.762L381.525 -286.783L400.487 -323.584L441.838 -321.605" stroke="white" stroke-opacity="0.25" stroke-miterlimit="10" stroke-linecap="round"/>
<path d="M-395.089 247.829L-353.809 249.733L-334.808 213.026L-293.517 214.923L-274.515 178.216L-233.236 180.12L-214.234 143.412L-172.944 145.31L-153.942 108.603L-112.652 110.501L-93.6499 73.7931L-52.3703 75.6971L-33.3686 38.9897L7.92179 40.8874L26.9342 4.17385L68.2246 6.0716L87.2263 -30.6358L128.517 -28.7381L147.518 -65.4455L188.809 -63.5477L207.821 -100.261L249.112 -98.3635L268.113 -135.071L309.404 -133.173L328.405 -169.881L369.706 -167.989L388.708 -204.696L430.009 -202.805L449.022 -239.518L490.323 -237.627" stroke="white" stroke-opacity="0.25" stroke-miterlimit="10" stroke-linecap="round"/>
<path d="M-473.946 111.245L-432.666 113.149L-413.664 76.4415L-372.374 78.3393L-353.372 41.6319L-312.092 43.5358L-293.091 6.82844L-251.8 8.72619L-232.799 -27.9812L-191.508 -26.0834L-172.507 -62.7909L-131.227 -60.8869L-112.225 -97.5943L-70.9349 -95.6966L-51.9225 -132.41L-10.6321 -130.512L8.3696 -167.22L49.66 -165.322L68.6617 -202.029L109.952 -200.132L128.964 -236.845L170.255 -234.948L189.257 -271.655L230.547 -269.757L249.549 -306.465L290.85 -304.573L309.851 -341.28L351.153 -339.389L370.165 -376.102L411.466 -374.211" stroke="white" stroke-opacity="0.25" stroke-miterlimit="10" stroke-linecap="round"/>
<path d="M-425.411 195.31L-384.131 197.214L-365.129 160.507L-323.839 162.404L-304.837 125.697L-263.558 127.601L-244.556 90.8935L-203.265 92.7913L-184.264 56.0839L-142.973 57.9816L-123.972 21.2742L-82.6921 23.1782L-63.6904 -13.5292L-22.4 -11.6315L-3.38759 -48.3451L37.9028 -46.4473L56.9045 -83.1547L98.1949 -81.257L117.197 -117.964L158.487 -116.067L177.499 -152.78L218.79 -150.882L237.791 -187.59L279.082 -185.692L298.084 -222.4L339.385 -220.508L358.386 -257.215L399.687 -255.324L418.7 -292.037L460.001 -290.146" stroke="white" stroke-opacity="0.25" stroke-miterlimit="10" stroke-linecap="round"/>
<path d="M-376.876 279.375L-335.596 281.279L-316.594 244.572L-275.304 246.469L-256.302 209.762L-215.023 211.666L-196.021 174.959L-154.731 176.856L-135.729 140.149L-94.4385 142.047L-75.4368 105.339L-34.1572 107.243L-15.1555 70.5358L26.1349 72.4336L45.1473 35.72L86.4377 37.6177L105.439 0.910331L146.73 2.80808L165.731 -33.8993L207.022 -32.0016L226.034 -68.7151L267.325 -66.8174L286.326 -103.525L327.617 -101.627L346.618 -138.334L387.92 -136.443L406.921 -173.15L448.222 -171.259L467.235 -207.972L508.536 -206.081" stroke="white" stroke-opacity="0.25" stroke-miterlimit="10" stroke-linecap="round"/>
<path d="M-449.678 153.277L-408.399 155.181L-389.397 118.474L-348.106 120.372L-329.105 83.6644L-287.825 85.5683L-268.823 48.8609L-227.533 50.7587L-208.531 14.0513L-167.241 15.949L-148.239 -20.7584L-106.96 -18.8544L-87.958 -55.5618L-46.6676 -53.6641L-27.6552 -90.3777L13.6352 -88.4799L32.6369 -125.187L73.9273 -123.29L92.929 -159.997L134.219 -158.099L153.232 -194.813L194.522 -192.915L213.524 -229.622L254.814 -227.725L273.816 -264.432L315.117 -262.541L334.119 -299.248L375.42 -297.356L394.432 -334.07L435.733 -332.178" stroke="white" stroke-opacity="0.25" stroke-miterlimit="10" stroke-linecap="round"/>
<path d="M-401.143 237.343L-359.863 239.246L-340.862 202.539L-299.571 204.437L-280.57 167.729L-239.29 169.633L-220.288 132.926L-178.998 134.824L-159.996 98.1163L-118.706 100.014L-99.7041 63.3067L-58.4245 65.2106L-39.4228 28.5032L1.86759 30.401L20.88 -6.3126L62.1704 -4.41485L81.1721 -41.1223L122.462 -39.2245L141.464 -75.9319L182.755 -74.0342L201.767 -110.748L243.057 -108.85L262.059 -145.557L303.349 -143.66L322.351 -180.367L363.652 -178.475L382.654 -215.183L423.955 -213.291L442.967 -250.005L484.269 -248.113" stroke="white" stroke-opacity="0.25" stroke-miterlimit="10" stroke-linecap="round"/>
<path d="M-461.787 132.305L-420.507 134.209L-401.506 97.5012L-360.215 99.399L-341.213 62.6916L-299.934 64.5955L-280.932 27.8881L-239.642 29.7859L-220.64 -6.92151L-179.35 -5.02376L-160.348 -41.7312L-119.068 -39.8272L-100.067 -76.5346L-58.7762 -74.6369L-39.7638 -111.35L1.52657 -109.453L20.5283 -146.16L61.8187 -144.262L80.8204 -180.97L122.111 -179.072L141.123 -215.786L182.414 -213.888L201.415 -250.595L242.706 -248.697L261.707 -285.405L303.008 -283.513L322.01 -320.221L363.311 -318.329L382.324 -355.043L423.625 -353.151" stroke="white" stroke-opacity="0.25" stroke-miterlimit="10" stroke-linecap="round"/>
<path d="M-413.302 216.283L-371.972 218.274L-353.021 181.479L-311.68 183.464L-292.729 146.67L-251.399 148.661L-232.447 111.866L-191.107 113.851L-172.155 77.0565L-130.815 79.0412L-111.863 42.2469L-70.5332 44.2378L-51.5818 7.44343L-10.2411 9.42811L8.72106 -27.3724L50.0616 -25.3877L69.0132 -62.1821L110.354 -60.1974L129.305 -96.9917L170.646 -95.007L189.608 -131.808L230.949 -129.823L249.9 -166.617L291.241 -164.633L310.192 -201.427L351.543 -199.448L370.495 -236.243L411.846 -234.264L430.809 -271.065L472.16 -269.086" stroke="white" stroke-opacity="0.25" stroke-miterlimit="10" stroke-linecap="round"/>
<path d="M-364.767 300.348L-323.487 302.252L-304.486 265.544L-263.195 267.442L-244.194 230.735L-202.914 232.639L-183.912 195.931L-142.622 197.829L-123.62 161.122L-82.3299 163.019L-63.3282 126.312L-22.0485 128.216L-3.04684 91.5086L38.2436 93.4063L57.256 56.6928L98.5463 58.5905L117.548 21.8831L158.838 23.7809L177.84 -12.9265L219.131 -11.0288L238.143 -47.7424L279.433 -45.8446L298.435 -82.552L339.725 -80.6543L358.727 -117.362L400.028 -115.47L419.03 -152.178L460.331 -150.286L479.343 -187L520.645 -185.108" stroke="white" stroke-opacity="0.25" stroke-miterlimit="10" stroke-linecap="round"/>
<path d="M-437.519 174.337L-396.24 176.241L-377.238 139.534L-335.948 141.431L-316.946 104.724L-275.666 106.628L-256.665 69.9206L-215.374 71.8184L-196.372 35.111L-155.082 37.0087L-136.08 0.301313L-94.8007 2.20526L-75.799 -34.5021L-34.5086 -32.6044L-15.4962 -69.318L25.7941 -67.4202L44.7959 -104.128L86.0862 -102.23L105.088 -138.937L146.378 -137.04L165.391 -173.753L206.681 -171.855L225.683 -208.563L266.973 -206.665L285.975 -243.372L327.276 -241.481L346.278 -278.188L387.579 -276.297L406.591 -313.01L447.892 -311.119" stroke="white" stroke-opacity="0.25" stroke-miterlimit="10" stroke-linecap="round"/>
<path d="M-389.034 258.315L-347.705 260.306L-328.753 223.512L-287.412 225.497L-268.461 188.702L-227.131 190.693L-208.18 153.899L-166.839 155.883L-147.888 119.089L-106.547 121.074L-87.5955 84.2795L-46.2657 86.2704L-27.3142 49.476L14.0264 51.4607L32.9886 14.6602L74.3292 16.6449L93.2807 -20.1495L134.621 -18.1648L153.573 -54.9591L194.913 -52.9744L213.876 -89.775L255.216 -87.7903L274.168 -124.585L315.508 -122.6L334.46 -159.394L375.811 -157.416L394.763 -194.21L436.114 -192.232L455.076 -229.032L496.427 -227.054" stroke="white" stroke-opacity="0.25" stroke-miterlimit="10" stroke-linecap="round"/>
</g>
</svg>
