<svg width="11" height="12" viewBox="0 0 11 12" fill="none" xmlns="http://www.w3.org/2000/svg">
<g id="Group 6644">
<path id="Vector" d="M8.01617 6L3.74231 10.383C3.55175 10.5783 3.5537 10.8908 3.7462 11.0861L4.51036 11.8538C4.70675 12.0491 5.02174 12.0491 5.21619 11.8518L10.6548 6.35353C10.752 6.25587 10.8006 6.12891 10.8006 6C10.8006 5.87109 10.752 5.74413 10.6548 5.64647L5.21619 0.1482C5.02174 -0.0490736 4.70675 -0.0490736 4.51036 0.146247L3.7462 0.913856C3.5537 1.10918 3.55175 1.42169 3.74231 1.61701L8.01617 6Z" fill="#1D2433" fill-opacity="0.65"/>
<path id="Vector_2" opacity="0.5" d="M2.94349 6.00015L0.094248 8.62994C-0.0327881 8.74713 -0.031492 8.93464 0.0968406 9.05183L0.606282 9.5124C0.737207 9.62959 0.947206 9.62959 1.07683 9.51123L4.70255 6.21226C4.76737 6.15367 4.79977 6.07749 4.79977 6.00015C4.79977 5.9228 4.76737 5.84662 4.70255 5.78803L1.07683 2.48907C0.947206 2.3707 0.737207 2.3707 0.606282 2.48789L0.0968408 2.94846C-0.0314918 3.06565 -0.0327878 3.25316 0.0942483 3.37035L2.94349 6.00015Z" fill="#1D2433" fill-opacity="0.65"/>
</g>
</svg>
