<svg width="20" height="21" viewBox="0 0 20 21" fill="none" xmlns="http://www.w3.org/2000/svg">
<g id="vuesax/linear/notification">
<g id="vuesax/linear/notification_2">
<g id="notification">
<path id="Vector" d="M10.0167 2.92505C7.25835 2.92505 5.01668 5.16672 5.01668 7.92505V10.3334C5.01668 10.8417 4.80001 11.6167 4.54168 12.05L3.58335 13.6417C2.99168 14.6251 3.40001 15.7167 4.48335 16.0834C8.07501 17.2834 11.95 17.2834 15.5417 16.0834C16.55 15.7501 16.9917 14.5584 16.4417 13.6417L15.4833 12.05C15.2333 11.6167 15.0167 10.8417 15.0167 10.3334V7.92505C15.0167 5.17505 12.7667 2.92505 10.0167 2.92505Z" stroke="#333B4F" stroke-miterlimit="10" stroke-linecap="round"/>
<path id="Vector_2" d="M11.5583 3.1667C11.3 3.0917 11.0333 3.03337 10.7583 3.00003C9.95831 2.90003 9.19164 2.95837 8.47498 3.1667C8.71664 2.55003 9.31664 2.1167 10.0166 2.1167C10.7166 2.1167 11.3166 2.55003 11.5583 3.1667Z" stroke="#333B4F" stroke-miterlimit="10" stroke-linecap="round" stroke-linejoin="round"/>
<path id="Vector_3" d="M12.5167 16.3833C12.5167 17.7583 11.3917 18.8833 10.0167 18.8833C9.33333 18.8833 8.7 18.6 8.25 18.15C7.8 17.7 7.51666 17.0666 7.51666 16.3833" stroke="#333B4F" stroke-miterlimit="10"/>
</g>
</g>
</g>
</svg>
