<svg width="11" height="12" viewBox="0 0 11 12" fill="none" xmlns="http://www.w3.org/2000/svg">
<g id="Group 6948">
<path id="Vector" d="M2.78465 6L7.05851 10.383C7.24907 10.5783 7.24712 10.8908 7.05462 11.0861L6.29046 11.8538C6.09407 12.0491 5.77908 12.0491 5.58463 11.8518L0.146054 6.35353C0.0488323 6.25587 0.00022152 6.12891 0.000221515 6C0.000221509 5.87109 0.0488323 5.74413 0.146054 5.64647L5.58463 0.1482C5.77908 -0.0490736 6.09407 -0.0490736 6.29046 0.146247L7.05462 0.913856C7.24712 1.10918 7.24907 1.42169 7.05851 1.61701L2.78465 6Z" fill="#1D2433" fill-opacity="0.65"/>
<path id="Vector_2" opacity="0.5" d="M7.85735 6.00015L10.7066 8.62994C10.8336 8.74713 10.8323 8.93464 10.704 9.05183L10.1946 9.5124C10.0636 9.62959 9.85363 9.62959 9.724 9.51123L6.09828 6.21226C6.03347 6.15367 6.00106 6.07749 6.00106 6.00015C6.00106 5.9228 6.03347 5.84662 6.09828 5.78803L9.724 2.48907C9.85363 2.3707 10.0636 2.3707 10.1946 2.48789L10.704 2.94846C10.8323 3.06565 10.8336 3.25316 10.7066 3.37035L7.85735 6.00015Z" fill="#1D2433" fill-opacity="0.65"/>
</g>
</svg>
