<svg width="20" height="20" viewBox="0 0 20 20" fill="none" xmlns="http://www.w3.org/2000/svg">
<path d="M14.0167 1.66663H5.98334C4.20834 1.66663 2.76667 3.11663 2.76667 4.88329V16.625C2.76667 18.125 3.84167 18.7583 5.15834 18.0333L9.225 15.775C9.65834 15.5333 10.3583 15.5333 10.7833 15.775L14.85 18.0333C16.1667 18.7666 17.2417 18.1333 17.2417 16.625V4.88329C17.2333 3.11663 15.7917 1.66663 14.0167 1.66663Z" stroke="#333B4F" stroke-linecap="round" stroke-linejoin="round"/>
<path d="M14.0167 1.66663H5.98334C4.20834 1.66663 2.76667 3.11663 2.76667 4.88329V16.625C2.76667 18.125 3.84167 18.7583 5.15834 18.0333L9.225 15.775C9.65834 15.5333 10.3583 15.5333 10.7833 15.775L14.85 18.0333C16.1667 18.7666 17.2417 18.1333 17.2417 16.625V4.88329C17.2333 3.11663 15.7917 1.66663 14.0167 1.66663Z" stroke="#333B4F" stroke-linecap="round" stroke-linejoin="round"/>
</svg>
