<svg width="56" height="56" viewBox="0 0 56 56" fill="none" xmlns="http://www.w3.org/2000/svg">
<g id="Group 6660">
<g id="Rectangle 525" filter="url(#filter0_d_65_111)">
<rect x="8" y="4" width="40" height="40" rx="8" fill="white"/>
<rect x="8.25" y="4.25" width="39.5" height="39.5" rx="7.75" stroke="#F6F8FB" stroke-width="0.5"/>
</g>
<g id="Group">
<path id="Vector" d="M18 27.6364C18 31.1545 20.8455 34 24.3636 34L23.4091 32.4091" stroke="#646B7A" stroke-width="1.5" stroke-linecap="round" stroke-linejoin="round"/>
<path id="Vector_2" d="M38 20.3636C38 16.8455 35.1545 14 31.6364 14L32.5909 15.5909" stroke="#646B7A" stroke-width="1.5" stroke-linecap="round" stroke-linejoin="round"/>
<g id="vuesax/linear/search-normal">
<g id="search-normal">
<path id="Vector_3" d="M27.2992 28.8863C29.8829 28.8863 31.9773 26.7919 31.9773 24.2083C31.9773 21.6247 29.8829 19.5303 27.2992 19.5303C24.7156 19.5303 22.6212 21.6247 22.6212 24.2083C22.6212 26.7919 24.7156 28.8863 27.2992 28.8863Z" stroke="#646B7A" stroke-width="1.5" stroke-linecap="round" stroke-linejoin="round"/>
<path id="Vector_4" d="M32.4697 29.3788L31.4849 28.3939" stroke="#646B7A" stroke-width="1.5" stroke-linecap="round" stroke-linejoin="round"/>
</g>
</g>
</g>
</g>
<defs>
<filter id="filter0_d_65_111" x="0" y="0" width="56" height="56" filterUnits="userSpaceOnUse" color-interpolation-filters="sRGB">
<feFlood flood-opacity="0" result="BackgroundImageFix"/>
<feColorMatrix in="SourceAlpha" type="matrix" values="0 0 0 0 0 0 0 0 0 0 0 0 0 0 0 0 0 0 127 0" result="hardAlpha"/>
<feOffset dy="4"/>
<feGaussianBlur stdDeviation="4"/>
<feComposite in2="hardAlpha" operator="out"/>
<feColorMatrix type="matrix" values="0 0 0 0 0 0 0 0 0 0 0 0 0 0 0 0 0 0 0.03 0"/>
<feBlend mode="normal" in2="BackgroundImageFix" result="effect1_dropShadow_65_111"/>
<feBlend mode="normal" in="SourceGraphic" in2="effect1_dropShadow_65_111" result="shape"/>
</filter>
</defs>
</svg>
