<svg width="20" height="21" viewBox="0 0 20 21" fill="none" xmlns="http://www.w3.org/2000/svg">
<g id="vuesax/linear/setting-2">
<g id="setting-2">
<path id="Vector" d="M10 13C11.3807 13 12.5 11.8807 12.5 10.5C12.5 9.11929 11.3807 8 10 8C8.61929 8 7.5 9.11929 7.5 10.5C7.5 11.8807 8.61929 13 10 13Z" stroke="#333B4F" stroke-miterlimit="10" stroke-linecap="round" stroke-linejoin="round"/>
<path id="Vector_2" d="M1.66669 11.2334V9.7667C1.66669 8.90003 2.37502 8.18336 3.25002 8.18336C4.75835 8.18336 5.37502 7.1167 4.61669 5.80836C4.18335 5.05836 4.44169 4.08336 5.20002 3.65003L6.64169 2.82503C7.30002 2.43336 8.15002 2.6667 8.54169 3.32503L8.63335 3.48336C9.38335 4.7917 10.6167 4.7917 11.375 3.48336L11.4667 3.32503C11.8584 2.6667 12.7084 2.43336 13.3667 2.82503L14.8084 3.65003C15.5667 4.08336 15.825 5.05836 15.3917 5.80836C14.6334 7.1167 15.25 8.18336 16.7584 8.18336C17.625 8.18336 18.3417 8.8917 18.3417 9.7667V11.2334C18.3417 12.1 17.6334 12.8167 16.7584 12.8167C15.25 12.8167 14.6334 13.8834 15.3917 15.1917C15.825 15.95 15.5667 16.9167 14.8084 17.35L13.3667 18.175C12.7084 18.5667 11.8584 18.3334 11.4667 17.675L11.375 17.5167C10.625 16.2084 9.39169 16.2084 8.63335 17.5167L8.54169 17.675C8.15002 18.3334 7.30002 18.5667 6.64169 18.175L5.20002 17.35C4.44169 16.9167 4.18335 15.9417 4.61669 15.1917C5.37502 13.8834 4.75835 12.8167 3.25002 12.8167C2.37502 12.8167 1.66669 12.1 1.66669 11.2334Z" stroke="#333B4F" stroke-miterlimit="10" stroke-linecap="round" stroke-linejoin="round"/>
</g>
</g>
</svg>
